<svg xmlns="http://www.w3.org/2000/svg" xmlns:xlink="http://www.w3.org/1999/xlink" width="500" zoomAndPan="magnify" viewBox="0 0 375 374.999991" height="500" preserveAspectRatio="xMidYMid meet" version="1.0"><defs><clipPath id="0b1393a4a4"><path d="M 49 37.5 L 327 37.5 L 327 208.5 L 49 208.5 Z M 49 37.5 " clip-rule="nonzero"/></clipPath><clipPath id="509b667792"><path d="M 49 91.441406 L 327 91.441406 L 327 262.441406 L 49 262.441406 Z M 49 91.441406 " clip-rule="nonzero"/></clipPath><clipPath id="88595e2aca"><path d="M 49 148.886719 L 327 148.886719 L 327 319.886719 L 49 319.886719 Z M 49 148.886719 " clip-rule="nonzero"/></clipPath></defs><g clip-path="url(#0b1393a4a4)"><path fill="#000000" d="M 67.617188 178.199219 L 159.636719 133.996094 C 162.96875 132.441406 164.304688 128.441406 162.75 125.109375 C 161.191406 121.777344 157.191406 120.445312 153.859375 122 L 61.839844 166.203125 C 52.28125 170.867188 47.390625 180.863281 49.835938 191.082031 C 52.28125 201.300781 60.949219 208.40625 71.398438 208.40625 L 304.109375 208.40625 C 314.777344 208.40625 323.445312 201.519531 325.667969 191.082031 C 327.890625 180.640625 323.222656 170.644531 313.667969 166.203125 L 196.53125 109.785156 L 209.425781 81.351562 C 213.871094 71.800781 212.980469 60.695312 207.203125 51.808594 C 201.421875 42.921875 191.644531 37.59375 181.195312 37.59375 C 164.082031 37.59375 150.078125 51.585938 150.078125 68.691406 L 150.078125 77.574219 C 150.078125 81.351562 152.96875 84.238281 156.746094 84.238281 C 160.527344 84.238281 163.414062 81.351562 163.414062 77.574219 L 163.414062 68.691406 C 163.414062 58.917969 171.417969 50.921875 181.195312 50.921875 C 187.417969 50.921875 192.753906 53.808594 196.089844 59.140625 C 199.421875 64.246094 199.867188 70.46875 197.421875 76.019531 L 181.863281 110.449219 C 180.308594 113.78125 181.863281 117.558594 184.976562 119.113281 L 308.109375 178.421875 C 312.777344 180.640625 313.667969 185.085938 313 188.414062 C 312.332031 191.746094 309.667969 195.300781 304.332031 195.300781 L 71.398438 195.300781 C 66.0625 195.300781 63.394531 191.746094 62.726562 188.414062 C 62.0625 185.085938 62.949219 180.417969 67.617188 178.199219 Z M 67.617188 178.199219 " fill-opacity="1" fill-rule="nonzero"/></g><g clip-path="url(#509b667792)"><path fill="#ff3131" d="M 67.617188 232.140625 L 159.636719 187.9375 C 162.96875 186.382812 164.304688 182.382812 162.75 179.050781 C 161.191406 175.71875 157.191406 174.386719 153.859375 175.941406 L 61.839844 220.144531 C 52.28125 224.808594 47.390625 234.804688 49.835938 245.023438 C 52.28125 255.242188 60.949219 262.347656 71.398438 262.347656 L 304.109375 262.347656 C 314.777344 262.347656 323.445312 255.460938 325.667969 245.023438 C 327.890625 234.582031 323.222656 224.585938 313.667969 220.144531 L 196.53125 163.726562 L 209.425781 135.292969 C 213.871094 125.742188 212.980469 114.636719 207.203125 105.75 C 201.421875 96.867188 191.644531 91.535156 181.195312 91.535156 C 164.082031 91.535156 150.078125 105.527344 150.078125 122.632812 L 150.078125 131.515625 C 150.078125 135.292969 152.96875 138.179688 156.746094 138.179688 C 160.527344 138.179688 163.414062 135.292969 163.414062 131.515625 L 163.414062 122.632812 C 163.414062 112.859375 171.417969 104.863281 181.195312 104.863281 C 187.417969 104.863281 192.753906 107.75 196.089844 113.082031 C 199.421875 118.1875 199.867188 124.410156 197.421875 129.960938 L 181.863281 164.390625 C 180.308594 167.722656 181.863281 171.5 184.976562 173.054688 L 308.109375 232.363281 C 312.777344 234.582031 313.667969 239.027344 313 242.359375 C 312.332031 245.6875 309.667969 249.242188 304.332031 249.242188 L 71.398438 249.242188 C 66.0625 249.242188 63.394531 245.6875 62.726562 242.359375 C 62.0625 239.027344 62.949219 234.359375 67.617188 232.140625 Z M 67.617188 232.140625 " fill-opacity="1" fill-rule="nonzero"/></g><g clip-path="url(#88595e2aca)"><path fill="#ffde59" d="M 67.617188 289.582031 L 159.636719 245.382812 C 162.96875 243.824219 164.304688 239.828125 162.75 236.496094 C 161.191406 233.164062 157.191406 231.832031 153.859375 233.386719 L 61.839844 277.589844 C 52.28125 282.253906 47.390625 292.25 49.835938 302.46875 C 52.28125 312.683594 60.949219 319.792969 71.398438 319.792969 L 304.109375 319.792969 C 314.777344 319.792969 323.445312 312.90625 325.667969 302.46875 C 327.890625 292.027344 323.222656 282.03125 313.667969 277.589844 L 196.53125 221.167969 L 209.425781 192.738281 C 213.871094 183.1875 212.980469 172.078125 207.203125 163.195312 C 201.421875 154.308594 191.644531 148.980469 181.195312 148.980469 C 164.082031 148.980469 150.078125 162.972656 150.078125 180.074219 L 150.078125 188.960938 C 150.078125 192.738281 152.96875 195.625 156.746094 195.625 C 160.527344 195.625 163.414062 192.738281 163.414062 188.960938 L 163.414062 180.074219 C 163.414062 170.300781 171.417969 162.304688 181.195312 162.304688 C 187.417969 162.304688 192.753906 165.195312 196.089844 170.523438 C 199.421875 175.632812 199.867188 181.851562 197.421875 187.40625 L 181.863281 221.835938 C 180.308594 225.167969 181.863281 228.945312 184.976562 230.5 L 308.109375 289.804688 C 312.777344 292.027344 313.667969 296.46875 313 299.800781 C 312.332031 303.132812 309.667969 306.6875 304.332031 306.6875 L 71.398438 306.6875 C 66.0625 306.6875 63.394531 303.132812 62.726562 299.800781 C 62.0625 296.46875 62.949219 291.804688 67.617188 289.582031 Z M 67.617188 289.582031 " fill-opacity="1" fill-rule="nonzero"/></g></svg>