<svg xmlns="http://www.w3.org/2000/svg" xmlns:xlink="http://www.w3.org/1999/xlink" width="500" zoomAndPan="magnify" viewBox="0 0 375 374.999991" height="500" preserveAspectRatio="xMidYMid meet" version="1.0"><defs><clipPath id="64e5f74996"><path d="M 49 75.0625 L 327 75.0625 L 327 246 L 49 246 Z M 49 75.0625 " clip-rule="nonzero"/></clipPath><clipPath id="3eba78aa2d"><path d="M 49 129.003906 L 327 129.003906 L 327 300 L 49 300 Z M 49 129.003906 " clip-rule="nonzero"/></clipPath></defs><g clip-path="url(#64e5f74996)"><path fill="#1973c0" d="M 67.617188 215.761719 L 159.636719 171.558594 C 162.96875 170.003906 164.304688 166.003906 162.75 162.671875 C 161.191406 159.339844 157.191406 158.007812 153.859375 159.5625 L 61.839844 203.765625 C 52.28125 208.429688 47.390625 218.425781 49.835938 228.644531 C 52.28125 238.863281 60.949219 245.96875 71.398438 245.96875 L 304.109375 245.96875 C 314.777344 245.96875 323.445312 239.085938 325.667969 228.644531 C 327.890625 218.203125 323.222656 208.210938 313.667969 203.765625 L 196.53125 147.347656 L 209.425781 118.914062 C 213.871094 109.363281 212.980469 98.257812 207.203125 89.371094 C 201.421875 80.488281 191.644531 75.15625 181.195312 75.15625 C 164.082031 75.15625 150.078125 89.148438 150.078125 106.253906 L 150.078125 115.140625 C 150.078125 118.914062 152.96875 121.800781 156.746094 121.800781 C 160.527344 121.800781 163.414062 118.914062 163.414062 115.140625 L 163.414062 106.253906 C 163.414062 96.480469 171.417969 88.484375 181.195312 88.484375 C 187.417969 88.484375 192.753906 91.371094 196.089844 96.703125 C 199.421875 101.8125 199.867188 108.03125 197.421875 113.582031 L 181.863281 148.011719 C 180.308594 151.34375 181.863281 155.121094 184.976562 156.675781 L 308.109375 215.984375 C 312.777344 218.203125 313.667969 222.648438 313 225.980469 C 312.332031 229.3125 309.667969 232.863281 304.332031 232.863281 L 71.398438 232.863281 C 66.0625 232.863281 63.394531 229.3125 62.726562 225.980469 C 62.0625 222.648438 62.949219 217.984375 67.617188 215.761719 Z M 67.617188 215.761719 " fill-opacity="1" fill-rule="nonzero"/></g><g clip-path="url(#3eba78aa2d)"><path fill="#074b97" d="M 67.617188 269.703125 L 159.636719 225.5 C 162.96875 223.945312 164.304688 219.945312 162.75 216.613281 C 161.191406 213.285156 157.191406 211.949219 153.859375 213.503906 L 61.839844 257.707031 C 52.28125 262.371094 47.390625 272.367188 49.835938 282.585938 C 52.28125 292.804688 60.949219 299.914062 71.398438 299.914062 L 304.109375 299.914062 C 314.777344 299.914062 323.445312 293.027344 325.667969 282.585938 C 327.890625 272.144531 323.222656 262.152344 313.667969 257.707031 L 196.53125 201.289062 L 209.425781 172.855469 C 213.871094 163.304688 212.980469 152.199219 207.203125 143.3125 C 201.421875 134.429688 191.644531 129.097656 181.195312 129.097656 C 164.082031 129.097656 150.078125 143.089844 150.078125 160.195312 L 150.078125 169.082031 C 150.078125 172.855469 152.96875 175.742188 156.746094 175.742188 C 160.527344 175.742188 163.414062 172.855469 163.414062 169.082031 L 163.414062 160.195312 C 163.414062 150.421875 171.417969 142.425781 181.195312 142.425781 C 187.417969 142.425781 192.753906 145.3125 196.089844 150.644531 C 199.421875 155.753906 199.867188 161.972656 197.421875 167.527344 L 181.863281 201.953125 C 180.308594 205.285156 181.863281 209.0625 184.976562 210.617188 L 308.109375 269.925781 C 312.777344 272.148438 313.667969 276.589844 313 279.921875 C 312.332031 283.253906 309.667969 286.808594 304.332031 286.808594 L 71.398438 286.808594 C 66.0625 286.808594 63.394531 283.253906 62.726562 279.921875 C 62.0625 276.589844 62.949219 271.925781 67.617188 269.703125 Z M 67.617188 269.703125 " fill-opacity="1" fill-rule="nonzero"/></g></svg>